<svg xmlns="http://www.w3.org/2000/svg" xmlns:xlink="http://www.w3.org/1999/xlink" width="1920" zoomAndPan="magnify" viewBox="0 0 1440 809.999993" height="1080" preserveAspectRatio="xMidYMid meet" version="1.0"><defs><clipPath id="425a49603d"><path d="M 361.183594 770 L 541.183594 770 L 541.183594 810 L 361.183594 810 Z M 361.183594 770 " clip-rule="nonzero"/></clipPath><clipPath id="22d72545f6"><path d="M 0.265625 0.398438 L 180.183594 0.398438 L 180.183594 40 L 0.265625 40 Z M 0.265625 0.398438 " clip-rule="nonzero"/></clipPath><clipPath id="84416d946b"><rect x="0" width="181" y="0" height="40"/></clipPath><clipPath id="0493b0dc1b"><path d="M 394 666 L 809 666 L 809 810 L 394 810 Z M 394 666 " clip-rule="nonzero"/></clipPath><clipPath id="d7dd37ef51"><path d="M 393.824219 658.023438 L 795.5 641.875 L 808.964844 976.851562 L 407.289062 993.003906 Z M 393.824219 658.023438 " clip-rule="nonzero"/></clipPath><clipPath id="e0ce100771"><path d="M 0.800781 17 L 415 17 L 415 144 L 0.800781 144 Z M 0.800781 17 " clip-rule="nonzero"/></clipPath><clipPath id="2073ca588d"><path d="M -0.175781 -7.976562 L 401.5 -24.125 L 414.964844 310.851562 L 13.289062 327.003906 Z M -0.175781 -7.976562 " clip-rule="nonzero"/></clipPath><clipPath id="c0d98c1fcf"><path d="M 401.476562 -24.125 L -0.199219 -7.976562 L 13.265625 327.003906 L 414.941406 310.855469 Z M 401.476562 -24.125 " clip-rule="nonzero"/></clipPath><clipPath id="63b0698cb6"><rect x="0" width="415" y="0" height="144"/></clipPath><clipPath id="111d38fbe8"><path d="M 714 651 L 1282 651 L 1282 810 L 714 810 Z M 714 651 " clip-rule="nonzero"/></clipPath><clipPath id="cfb863beda"><path d="M 713.265625 639.292969 L 1263.324219 617.179688 L 1281.761719 1075.808594 L 731.707031 1097.921875 Z M 713.265625 639.292969 " clip-rule="nonzero"/></clipPath><clipPath id="48a3763551"><path d="M 0.480469 22 L 567.601562 22 L 567.601562 159 L 0.480469 159 Z M 0.480469 22 " clip-rule="nonzero"/></clipPath><clipPath id="0d6cef1509"><path d="M -0.734375 -11.707031 L 549.324219 -33.820312 L 567.761719 424.808594 L 17.707031 446.921875 Z M -0.734375 -11.707031 " clip-rule="nonzero"/></clipPath><clipPath id="da25ff81b6"><path d="M 549.113281 -33.8125 L -0.945312 -11.699219 L 17.496094 446.929688 L 567.550781 424.816406 Z M 549.113281 -33.8125 " clip-rule="nonzero"/></clipPath><clipPath id="8d5777bed0"><rect x="0" width="568" y="0" height="159"/></clipPath><clipPath id="f3e6081934"><path d="M 0 36 L 735.882812 36 L 735.882812 801.691406 L 0 801.691406 Z M 0 36 " clip-rule="nonzero"/></clipPath><clipPath id="6bc14fe07b"><path d="M 0 0 L 735.882812 0 L 735.882812 765 L 0 765 Z M 0 0 " clip-rule="nonzero"/></clipPath><clipPath id="bcb5912e3a"><rect x="0" width="736" y="0" height="766"/></clipPath><clipPath id="d33881732c"><path d="M 722.929688 51 L 1440 51 L 1440 784.445312 L 722.929688 784.445312 Z M 722.929688 51 " clip-rule="nonzero"/></clipPath><clipPath id="e8e552cf04"><path d="M 451.230469 41.738281 L 1440 41.738281 L 1440 810 L 451.230469 810 Z M 451.230469 41.738281 " clip-rule="nonzero"/></clipPath><clipPath id="eb7f71a7ef"><path d="M 0.277344 0.738281 L 989 0.738281 L 989 769 L 0.277344 769 Z M 0.277344 0.738281 " clip-rule="nonzero"/></clipPath><clipPath id="76b77dc8e4"><rect x="0" width="989" y="0" height="769"/></clipPath><clipPath id="2c20f6bccc"><path d="M 475.75 0 L 1440 0 L 1440 810 L 475.75 810 Z M 475.75 0 " clip-rule="nonzero"/></clipPath><clipPath id="94b4b58f30"><path d="M 1 0 L 965 0 L 965 810 L 1 810 Z M 1 0 " clip-rule="nonzero"/></clipPath><clipPath id="f62be1ac8b"><rect x="0" width="965" y="0" height="810"/></clipPath><clipPath id="cf40bcfb75"><path d="M 0 41.738281 L 451.300781 41.738281 L 451.300781 810 L 0 810 Z M 0 41.738281 " clip-rule="nonzero"/></clipPath></defs><g clip-path="url(#425a49603d)"><g transform="matrix(1, 0, 0, 1, 361, 770)"><g clip-path="url(#84416d946b)"><g clip-path="url(#22d72545f6)"><path fill="#0f2b16" d="M 180.265625 48.542969 L 180.265625 139.519531 L 0.183594 139.519531 L 0.183594 0.53125 C 60.222656 59.671875 120.226562 -10.597656 180.265625 48.542969 Z M 180.265625 48.542969 " fill-opacity="1" fill-rule="nonzero"/></g></g></g></g><g clip-path="url(#0493b0dc1b)"><g clip-path="url(#d7dd37ef51)"><g transform="matrix(1, 0, 0, 1, 394, 666)"><g clip-path="url(#63b0698cb6)"><g clip-path="url(#e0ce100771)"><g clip-path="url(#2073ca588d)"><g clip-path="url(#c0d98c1fcf)"><path fill="#0f2b16" d="M 406.785156 107.964844 L 414.945312 310.878906 L 13.292969 327.027344 L 0.828125 17.03125 C 140.042969 143.550781 267.570312 -18.554688 406.785156 107.964844 Z M 406.785156 107.964844 " fill-opacity="1" fill-rule="nonzero"/></g></g></g></g></g></g></g><g clip-path="url(#111d38fbe8)"><g clip-path="url(#cfb863beda)"><g transform="matrix(1, 0, 0, 1, 714, 651)"><g clip-path="url(#8d5777bed0)"><g clip-path="url(#48a3763551)"><g clip-path="url(#0d6cef1509)"><g clip-path="url(#da25ff81b6)"><path fill="#0f2b16" d="M 556.382812 147.011719 L 567.550781 424.792969 L 17.707031 446.898438 L 0.644531 22.53125 C 191.222656 195.730469 365.804688 -26.1875 556.382812 147.011719 Z M 556.382812 147.011719 " fill-opacity="1" fill-rule="nonzero"/></g></g></g></g></g></g></g><g clip-path="url(#f3e6081934)"><g transform="matrix(1, 0, 0, 1, 0, 36)"><g clip-path="url(#bcb5912e3a)"><g clip-path="url(#6bc14fe07b)"><path fill="#0f2b16" d="M 736.117188 264.351562 L 736.117188 764.996094 L -254.867188 764.996094 L -254.867188 0.15625 C 75.527344 325.59375 405.722656 -61.085938 736.117188 264.351562 Z M 736.117188 264.351562 " fill-opacity="1" fill-rule="nonzero"/></g></g></g></g><g clip-path="url(#d33881732c)"><path fill="#0f2b16" d="M 722.929688 310.058594 L 722.929688 800.917969 L 1694.542969 800.917969 L 1694.542969 51.027344 C 1370.605469 370.105469 1046.867188 -9.019531 722.929688 310.058594 Z M 722.929688 310.058594 " fill-opacity="1" fill-rule="nonzero"/></g><g clip-path="url(#e8e552cf04)"><g transform="matrix(1, 0, 0, 1, 451, 41)"><g clip-path="url(#76b77dc8e4)"><g clip-path="url(#eb7f71a7ef)"><path fill="#0a2511" d="M 0.714844 901.171875 L 1288.984375 901.171875 L 1288.984375 1.09375 C 1277.53125 0.679688 1266.050781 0.875 1254.597656 1.699219 C 1158.539062 8.601562 1066.515625 59.601562 1009.753906 137.410156 C 969.347656 192.769531 947.121094 258.945312 915.910156 319.949219 C 884.699219 380.953125 840.023438 440.390625 775.28125 462.867188 C 722.082031 481.324219 663.914062 472.074219 607.625 470.273438 C 452.15625 465.320312 295.554688 521.921875 179.191406 625.148438 C 96.210938 698.757812 34.320312 795.523438 0.714844 901.171875 Z M 0.714844 901.171875 " fill-opacity="1" fill-rule="nonzero"/></g></g></g></g><g clip-path="url(#2c20f6bccc)"><g transform="matrix(1, 0, 0, 1, 475, 0.000000000000039746)"><g clip-path="url(#f62be1ac8b)"><g clip-path="url(#94b4b58f30)"><path fill="#0a2511" d="M 1.234375 874.875 L 1289.507812 874.875 L 1289.507812 -25.203125 C 1278.054688 -25.617188 1266.570312 -25.425781 1255.117188 -24.597656 C 1159.058594 -17.695312 1067.035156 33.304688 1010.273438 111.109375 C 969.871094 166.46875 947.644531 232.644531 916.429688 293.648438 C 885.21875 354.652344 840.546875 414.09375 775.800781 436.570312 C 722.601562 455.027344 664.433594 445.777344 608.144531 443.972656 C 452.679688 439.023438 296.074219 495.625 179.710938 598.847656 C 96.730469 672.457031 34.839844 769.226562 1.234375 874.875 Z M 1.234375 874.875 " fill-opacity="1" fill-rule="nonzero"/></g></g></g></g><g clip-path="url(#cf40bcfb75)"><path fill="#0b2411" d="M -226.699219 41.90625 C -162.253906 58.765625 -87.675781 83.582031 -33.765625 127.292969 C 19.332031 170.394531 28.507812 230.902344 54.683594 291.542969 C 92.480469 378.96875 188.203125 439.609375 257.75 501.609375 C 347.417969 581.558594 403.707031 664.90625 422.675781 784.761719 C 436.613281 872.730469 429.882812 964.984375 451.230469 1048.402344 L -226.699219 1048.402344 Z M -226.699219 41.90625 " fill-opacity="1" fill-rule="nonzero"/></g></svg>