<svg xmlns="http://www.w3.org/2000/svg" xmlns:xlink="http://www.w3.org/1999/xlink" width="1920" zoomAndPan="magnify" viewBox="0 0 1440 809.999993" height="1080" preserveAspectRatio="xMidYMid meet" version="1.0"><defs><clipPath id="b25954225f"><path d="M 0 36 L 741.851562 36 L 741.851562 803.191406 L 0 803.191406 Z M 0 36 " clip-rule="nonzero"/></clipPath><clipPath id="b1dbc1149e"><path d="M 0 0.238281 L 741.851562 0.238281 L 741.851562 767 L 0 767 Z M 0 0.238281 " clip-rule="nonzero"/></clipPath><clipPath id="a54b2dda3b"><rect x="0" width="742" y="0" height="768"/></clipPath><clipPath id="069866375f"><path d="M 714 651 L 1282 651 L 1282 810 L 714 810 Z M 714 651 " clip-rule="nonzero"/></clipPath><clipPath id="f9824240c3"><path d="M 713.265625 639.292969 L 1263.324219 617.179688 L 1281.761719 1075.808594 L 731.707031 1097.921875 Z M 713.265625 639.292969 " clip-rule="nonzero"/></clipPath><clipPath id="a400ccbf4a"><path d="M 0.480469 22 L 567.601562 22 L 567.601562 159 L 0.480469 159 Z M 0.480469 22 " clip-rule="nonzero"/></clipPath><clipPath id="d8110e766a"><path d="M -0.734375 -11.707031 L 549.324219 -33.820312 L 567.761719 424.808594 L 17.707031 446.921875 Z M -0.734375 -11.707031 " clip-rule="nonzero"/></clipPath><clipPath id="be87f753e5"><path d="M 549.113281 -33.8125 L -0.945312 -11.699219 L 17.496094 446.929688 L 567.550781 424.816406 Z M 549.113281 -33.8125 " clip-rule="nonzero"/></clipPath><clipPath id="4e43c1e82d"><rect x="0" width="568" y="0" height="159"/></clipPath><clipPath id="e81e50dfeb"><path d="M 194.519531 182.113281 L 1440 182.113281 L 1440 810 L 194.519531 810 Z M 194.519531 182.113281 " clip-rule="nonzero"/></clipPath><clipPath id="caed66aaea"><path d="M 1 0.113281 L 1246 0.113281 L 1246 628 L 1 628 Z M 1 0.113281 " clip-rule="nonzero"/></clipPath><clipPath id="2c2b593ab0"><rect x="0" width="1246" y="0" height="628"/></clipPath><clipPath id="7e859e07d6"><path d="M 720 59 L 1440 59 L 1440 792.75 L 720 792.75 Z M 720 59 " clip-rule="nonzero"/></clipPath><clipPath id="05dbed1f0f"><path d="M 206.617188 182.113281 L 1440 182.113281 L 1440 810 L 206.617188 810 Z M 206.617188 182.113281 " clip-rule="nonzero"/></clipPath><clipPath id="57c5a9f44d"><path d="M 1 0.113281 L 1234 0.113281 L 1234 628 L 1 628 Z M 1 0.113281 " clip-rule="nonzero"/></clipPath><clipPath id="bc33a17ea6"><rect x="0" width="1234" y="0" height="628"/></clipPath><clipPath id="73a8883a08"><path d="M 0 57.433594 L 451.300781 57.433594 L 451.300781 810 L 0 810 Z M 0 57.433594 " clip-rule="nonzero"/></clipPath></defs><rect x="-144" width="1728" fill="#ffffff" y="-80.999999" height="971.999992" fill-opacity="1"/><rect x="-144" width="1728" fill="#ffffff" y="-80.999999" height="971.999992" fill-opacity="1"/><g clip-path="url(#b25954225f)"><g transform="matrix(1, 0, 0, 1, 0, 36)"><g clip-path="url(#a54b2dda3b)"><g clip-path="url(#b1dbc1149e)"><path fill="#332d2d" d="M 742.167969 265.117188 L 742.167969 766.941406 L -251.148438 766.941406 L -251.148438 0.300781 C 80.023438 326.503906 410.996094 -61.085938 742.167969 265.117188 Z M 742.167969 265.117188 " fill-opacity="1" fill-rule="nonzero"/></g></g></g></g><g clip-path="url(#069866375f)"><g clip-path="url(#f9824240c3)"><g transform="matrix(1, 0, 0, 1, 714, 651)"><g clip-path="url(#4e43c1e82d)"><g clip-path="url(#a400ccbf4a)"><g clip-path="url(#d8110e766a)"><g clip-path="url(#be87f753e5)"><path fill="#292525" d="M 556.382812 147.011719 L 567.550781 424.792969 L 17.707031 446.898438 L 0.644531 22.53125 C 191.222656 195.730469 365.804688 -26.1875 556.382812 147.011719 Z M 556.382812 147.011719 " fill-opacity="1" fill-rule="nonzero"/></g></g></g></g></g></g></g><g clip-path="url(#e81e50dfeb)"><g transform="matrix(1, 0, 0, 1, 194, 182)"><g clip-path="url(#2c2b593ab0)"><g clip-path="url(#caed66aaea)"><path fill="#332d2d" d="M 1 900.546875 L 1289.273438 900.546875 L 1289.273438 0.464844 C 1277.820312 0.0507812 1266.335938 0.246094 1254.882812 1.070312 C 1158.828125 7.972656 1066.804688 58.972656 1010.039062 136.78125 C 969.636719 192.140625 947.410156 258.316406 916.199219 319.320312 C 884.988281 380.324219 840.3125 439.761719 775.570312 462.238281 C 722.367188 480.699219 664.203125 471.445312 607.910156 469.644531 C 452.445312 464.691406 295.839844 521.292969 179.476562 624.519531 C 96.5 698.128906 34.605469 794.894531 1 900.546875 Z M 1 900.546875 " fill-opacity="1" fill-rule="nonzero"/></g></g></g></g><g clip-path="url(#7e859e07d6)"><path fill="#332d2d" d="M 720 318.367188 L 720 809.222656 L 1691.613281 809.222656 L 1691.613281 59.332031 C 1367.675781 378.410156 1043.9375 -0.710938 720 318.367188 Z M 720 318.367188 " fill-opacity="1" fill-rule="nonzero"/></g><g clip-path="url(#05dbed1f0f)"><g transform="matrix(1, 0, 0, 1, 206, 182)"><g clip-path="url(#bc33a17ea6)"><g clip-path="url(#57c5a9f44d)"><path fill="#292525" d="M 1.101562 900.546875 L 1289.371094 900.546875 L 1289.371094 0.464844 C 1277.917969 0.0507812 1266.4375 0.246094 1254.984375 1.070312 C 1158.925781 7.972656 1066.902344 58.972656 1010.136719 136.78125 C 969.734375 192.140625 947.507812 258.316406 916.296875 319.320312 C 885.085938 380.324219 840.410156 439.761719 775.667969 462.238281 C 722.464844 480.699219 664.300781 471.445312 608.007812 469.644531 C 452.542969 464.691406 295.9375 521.292969 179.574219 624.519531 C 96.597656 698.128906 34.707031 794.894531 1.101562 900.546875 Z M 1.101562 900.546875 " fill-opacity="1" fill-rule="nonzero"/></g></g></g></g><g clip-path="url(#73a8883a08)"><path fill="#292525" d="M -226.699219 57.601562 C -162.253906 74.460938 -87.675781 99.273438 -33.765625 142.988281 C 19.332031 186.089844 28.507812 246.59375 54.683594 307.234375 C 92.480469 394.664062 188.203125 455.304688 257.75 517.304688 C 347.417969 597.253906 403.707031 680.601562 422.675781 800.457031 C 436.613281 888.425781 429.882812 980.679688 451.230469 1064.09375 L -226.699219 1064.09375 Z M -226.699219 57.601562 " fill-opacity="1" fill-rule="nonzero"/></g></svg>